<svg xmlns="http://www.w3.org/2000/svg" xmlns:xlink="http://www.w3.org/1999/xlink" width="150" zoomAndPan="magnify" viewBox="0 0 112.5 37.5" height="50" preserveAspectRatio="xMidYMid meet" version="1.0"><defs><clipPath id="3c32b39bbb"><path d="M 0.492188 0 L 111.511719 0 L 111.511719 37.007812 L 0.492188 37.007812 Z M 0.492188 0 " clip-rule="nonzero"/></clipPath><clipPath id="a4b9bd7a2a"><path d="M 1.585938 11 L 110.386719 11 L 110.386719 29.9375 L 1.585938 29.9375 Z M 1.585938 11 " clip-rule="nonzero"/></clipPath></defs><g clip-path="url(#3c32b39bbb)"><path fill="#0cc0df" d="M -10.078125 -1.304688 L 111.585938 -1.304688 L 111.585938 37.007812 L -10.078125 37.007812 Z M -10.078125 -1.304688 " fill-opacity="1" fill-rule="nonzero"/></g><path fill="#3395ff" d="M 8.632812 13.042969 L 7.730469 16.359375 L 12.902344 13.023438 L 9.519531 25.609375 L 12.953125 25.613281 L 17.949219 7.023438 " fill-opacity="1" fill-rule="nonzero"/><g clip-path="url(#a4b9bd7a2a)"><path fill="#072654" d="M 3.066406 20.320312 L 1.644531 25.613281 L 8.683594 25.613281 L 11.566406 14.847656 L 3.066406 20.320312 M 27.523438 15.664062 C 27.351562 16.300781 27.019531 16.769531 26.527344 17.070312 C 26.03125 17.367188 25.339844 17.515625 24.445312 17.515625 L 21.605469 17.515625 L 22.605469 13.808594 L 25.445312 13.808594 C 26.335938 13.808594 26.949219 13.957031 27.28125 14.261719 C 27.617188 14.566406 27.695312 15.027344 27.523438 15.667969 M 30.464844 15.589844 C 30.828125 14.25 30.675781 13.21875 30.015625 12.5 C 29.355469 11.785156 28.199219 11.421875 26.546875 11.421875 L 20.207031 11.421875 L 16.394531 25.617188 L 19.472656 25.617188 L 21.011719 19.898438 L 23.03125 19.898438 C 23.484375 19.898438 23.839844 19.972656 24.101562 20.113281 C 24.359375 20.261719 24.515625 20.519531 24.5625 20.894531 L 25.109375 25.617188 L 28.410156 25.617188 L 27.875 21.214844 C 27.765625 20.230469 27.316406 19.652344 26.519531 19.480469 C 27.53125 19.1875 28.378906 18.703125 29.0625 18.027344 C 29.753906 17.34375 30.222656 16.53125 30.464844 15.59375 M 37.949219 20.539062 C 37.691406 21.5 37.296875 22.226562 36.761719 22.734375 C 36.222656 23.246094 35.585938 23.496094 34.835938 23.496094 C 34.078125 23.496094 33.5625 23.25 33.289062 22.753906 C 33.015625 22.253906 33.007812 21.535156 33.257812 20.589844 C 33.511719 19.644531 33.917969 18.90625 34.472656 18.375 C 35.03125 17.84375 35.679688 17.578125 36.429688 17.578125 C 37.175781 17.578125 37.683594 17.835938 37.941406 18.34375 C 38.207031 18.859375 38.210938 19.59375 37.953125 20.546875 Z M 39.300781 15.515625 L 38.914062 16.949219 C 38.746094 16.4375 38.425781 16.023438 37.945312 15.714844 C 37.46875 15.410156 36.875 15.257812 36.171875 15.257812 C 35.304688 15.257812 34.472656 15.480469 33.675781 15.925781 C 32.875 16.371094 32.175781 17.003906 31.582031 17.816406 C 30.984375 18.628906 30.546875 19.546875 30.265625 20.582031 C 29.992188 21.625 29.933594 22.535156 30.101562 23.324219 C 30.273438 24.121094 30.632812 24.726562 31.191406 25.148438 C 31.753906 25.578125 32.46875 25.789062 33.347656 25.789062 C 34.054688 25.792969 34.726562 25.648438 35.367188 25.351562 C 36 25.066406 36.542969 24.660156 36.996094 24.136719 L 36.59375 25.632812 L 39.570312 25.632812 L 42.292969 15.519531 L 39.308594 15.519531 Z M 52.992188 15.515625 L 44.332031 15.515625 L 43.726562 17.769531 L 48.765625 17.769531 L 42.105469 23.507812 L 41.535156 25.625 L 50.472656 25.625 L 51.078125 23.371094 L 45.679688 23.371094 L 52.441406 17.546875 M 60.613281 20.519531 C 60.34375 21.515625 59.945312 22.265625 59.421875 22.753906 C 58.898438 23.246094 58.261719 23.492188 57.515625 23.492188 C 55.953125 23.492188 55.441406 22.5 55.972656 20.519531 C 56.238281 19.535156 56.636719 18.796875 57.171875 18.296875 C 57.703125 17.796875 58.351562 17.550781 59.113281 17.550781 C 59.855469 17.550781 60.359375 17.796875 60.621094 18.296875 C 60.878906 18.792969 60.878906 19.535156 60.613281 20.519531 M 62.355469 15.894531 C 61.671875 15.46875 60.796875 15.257812 59.726562 15.257812 C 58.648438 15.257812 57.648438 15.46875 56.726562 15.890625 C 55.796875 16.316406 55.015625 16.929688 54.375 17.726562 C 53.726562 18.519531 53.261719 19.453125 52.972656 20.519531 C 52.691406 21.578125 52.660156 22.507812 52.875 23.304688 C 53.09375 24.101562 53.554688 24.714844 54.242188 25.136719 C 54.9375 25.5625 55.820312 25.777344 56.902344 25.777344 C 57.972656 25.777344 58.964844 25.5625 59.875 25.136719 C 60.789062 24.707031 61.570312 24.101562 62.21875 23.300781 C 62.863281 22.503906 63.328125 21.570312 63.617188 20.507812 C 63.902344 19.445312 63.9375 18.515625 63.71875 17.714844 C 63.503906 16.921875 63.046875 16.308594 62.367188 15.882812 M 72.984375 18.214844 L 73.75 15.464844 C 73.492188 15.332031 73.152344 15.265625 72.726562 15.265625 C 72.042969 15.265625 71.390625 15.433594 70.757812 15.773438 C 70.21875 16.0625 69.753906 16.472656 69.367188 16.984375 L 69.761719 15.5 L 68.898438 15.503906 L 66.773438 15.503906 L 64.039062 25.613281 L 67.058594 25.613281 L 68.476562 20.328125 C 68.683594 19.5625 69.054688 18.957031 69.589844 18.527344 C 70.125 18.097656 70.789062 17.878906 71.59375 17.878906 C 72.085938 17.878906 72.546875 17.992188 72.980469 18.21875 M 81.386719 20.570312 C 81.128906 21.511719 80.738281 22.234375 80.207031 22.730469 C 79.671875 23.230469 79.027344 23.480469 78.285156 23.480469 C 77.539062 23.480469 77.027344 23.230469 76.757812 22.726562 C 76.480469 22.21875 76.476562 21.492188 76.734375 20.53125 C 76.992188 19.574219 77.386719 18.839844 77.933594 18.328125 C 78.476562 17.816406 79.121094 17.558594 79.867188 17.558594 C 80.601562 17.558594 81.09375 17.824219 81.359375 18.355469 C 81.621094 18.886719 81.628906 19.625 81.375 20.570312 M 83.484375 15.910156 C 82.925781 15.464844 82.210938 15.242188 81.347656 15.242188 C 80.585938 15.242188 79.863281 15.414062 79.175781 15.761719 C 78.492188 16.105469 77.933594 16.578125 77.507812 17.175781 L 77.519531 17.105469 L 78.023438 15.5 L 75.074219 15.5 L 74.324219 18.296875 L 74.300781 18.394531 L 71.203125 29.921875 L 74.226562 29.921875 L 75.785156 24.117188 C 75.941406 24.636719 76.257812 25.039062 76.738281 25.332031 C 77.222656 25.625 77.816406 25.769531 78.523438 25.769531 C 79.402344 25.769531 80.238281 25.558594 81.035156 25.132812 C 81.832031 24.710938 82.519531 24.097656 83.105469 23.308594 C 83.691406 22.519531 84.125 21.605469 84.402344 20.566406 C 84.683594 19.53125 84.738281 18.605469 84.578125 17.796875 C 84.414062 16.984375 84.054688 16.359375 83.496094 15.914062 M 93.515625 20.527344 C 93.257812 21.484375 92.859375 22.214844 92.328125 22.71875 C 91.792969 23.226562 91.152344 23.480469 90.40625 23.480469 C 89.640625 23.480469 89.125 23.234375 88.855469 22.734375 C 88.582031 22.238281 88.574219 21.515625 88.828125 20.574219 C 89.082031 19.628906 89.484375 18.890625 90.039062 18.359375 C 90.597656 17.824219 91.246094 17.558594 91.992188 17.558594 C 92.738281 17.558594 93.246094 17.816406 93.507812 18.328125 C 93.773438 18.839844 93.773438 19.570312 93.515625 20.53125 Z M 94.863281 15.5 L 94.476562 16.9375 C 94.3125 16.421875 93.988281 16.007812 93.511719 15.703125 C 93.03125 15.398438 92.441406 15.246094 91.734375 15.246094 C 90.867188 15.246094 90.03125 15.46875 89.234375 15.914062 C 88.4375 16.359375 87.734375 16.984375 87.140625 17.796875 C 86.542969 18.605469 86.105469 19.53125 85.824219 20.566406 C 85.546875 21.605469 85.492188 22.515625 85.660156 23.308594 C 85.828125 24.097656 86.1875 24.710938 86.75 25.136719 C 87.308594 25.558594 88.027344 25.773438 88.90625 25.773438 C 89.613281 25.773438 90.285156 25.625 90.925781 25.332031 C 91.558594 25.046875 92.097656 24.640625 92.550781 24.117188 L 92.148438 25.613281 L 95.128906 25.613281 L 97.84375 15.503906 L 94.867188 15.503906 Z M 110.347656 15.503906 L 108.519531 15.503906 C 108.460938 15.503906 108.40625 15.503906 108.355469 15.507812 L 107.40625 15.507812 L 106.917969 16.179688 L 106.796875 16.339844 L 106.746094 16.421875 L 102.886719 21.78125 L 102.089844 15.503906 L 98.929688 15.503906 L 100.53125 25.042969 L 96.996094 29.925781 L 100.144531 29.925781 L 101 28.714844 C 101.023438 28.679688 101.046875 28.648438 101.074219 28.613281 L 102.074219 27.199219 L 102.101562 27.160156 L 106.574219 20.835938 L 110.34375 15.515625 L 110.347656 15.511719 Z M 110.347656 15.503906 " fill-opacity="1" fill-rule="nonzero"/></g></svg>