<svg xmlns="http://www.w3.org/2000/svg" xmlns:xlink="http://www.w3.org/1999/xlink" width="150" zoomAndPan="magnify" viewBox="0 0 112.5 33.749998" height="45" preserveAspectRatio="xMidYMid meet" version="1.0"><defs><clipPath id="1d62f8f326"><path d="M 1.144531 0.996094 L 110.570312 0.996094 L 110.570312 32.085938 L 1.144531 32.085938 Z M 1.144531 0.996094 " clip-rule="nonzero"/></clipPath><clipPath id="d0edd234bb"><path d="M 2.632812 0.996094 L 109.007812 0.996094 C 109.402344 0.996094 109.78125 1.152344 110.0625 1.433594 C 110.339844 1.710938 110.5 2.089844 110.5 2.484375 L 110.5 30.597656 C 110.5 30.992188 110.339844 31.371094 110.0625 31.652344 C 109.78125 31.929688 109.402344 32.085938 109.007812 32.085938 L 2.632812 32.085938 C 2.238281 32.085938 1.859375 31.929688 1.578125 31.652344 C 1.300781 31.371094 1.144531 30.992188 1.144531 30.597656 L 1.144531 2.484375 C 1.144531 2.089844 1.300781 1.710938 1.578125 1.433594 C 1.859375 1.152344 2.238281 0.996094 2.632812 0.996094 Z M 2.632812 0.996094 " clip-rule="nonzero"/></clipPath><clipPath id="35bea6ce2a"><path d="M 9 5.769531 L 20 5.769531 L 20 24 L 9 24 Z M 9 5.769531 " clip-rule="nonzero"/></clipPath><clipPath id="fe3bf08bf3"><path d="M 4.078125 10 L 107.5625 10 L 107.5625 28.105469 L 4.078125 28.105469 Z M 4.078125 10 " clip-rule="nonzero"/></clipPath></defs><g clip-path="url(#1d62f8f326)"><g clip-path="url(#d0edd234bb)"><path fill="#0cc0df" d="M 1.144531 0.996094 L 110.449219 0.996094 L 110.449219 32.085938 L 1.144531 32.085938 Z M 1.144531 0.996094 " fill-opacity="1" fill-rule="nonzero"/></g></g><g clip-path="url(#35bea6ce2a)"><path fill="#3395ff" d="M 10.773438 11.65625 L 9.914062 14.886719 L 14.832031 11.640625 L 11.617188 23.890625 L 14.882812 23.894531 L 19.636719 5.796875 " fill-opacity="1" fill-rule="nonzero"/></g><g clip-path="url(#fe3bf08bf3)"><path fill="#072654" d="M 5.476562 18.742188 L 4.125 23.894531 L 10.824219 23.894531 L 13.5625 13.414062 L 5.476562 18.742188 M 28.746094 14.207031 C 28.582031 14.828125 28.265625 15.285156 27.796875 15.578125 C 27.328125 15.867188 26.667969 16.011719 25.816406 16.011719 L 23.117188 16.011719 L 24.066406 12.402344 L 26.765625 12.402344 C 27.617188 12.402344 28.199219 12.550781 28.515625 12.84375 C 28.832031 13.140625 28.910156 13.589844 28.746094 14.214844 M 31.542969 14.136719 C 31.886719 12.832031 31.746094 11.832031 31.117188 11.128906 C 30.488281 10.433594 29.386719 10.082031 27.816406 10.082031 L 21.785156 10.082031 L 18.15625 23.898438 L 21.085938 23.898438 L 22.546875 18.328125 L 24.46875 18.328125 C 24.902344 18.328125 25.238281 18.402344 25.488281 18.542969 C 25.734375 18.6875 25.882812 18.9375 25.925781 19.296875 L 26.449219 23.898438 L 29.589844 23.898438 L 29.078125 19.609375 C 28.976562 18.652344 28.546875 18.089844 27.792969 17.921875 C 28.753906 17.640625 29.558594 17.164062 30.210938 16.507812 C 30.867188 15.84375 31.3125 15.054688 31.542969 14.140625 M 38.664062 18.953125 C 38.417969 19.890625 38.042969 20.597656 37.53125 21.09375 C 37.023438 21.585938 36.414062 21.832031 35.703125 21.832031 C 34.980469 21.832031 34.488281 21.59375 34.230469 21.109375 C 33.96875 20.625 33.960938 19.921875 34.203125 19.003906 C 34.441406 18.085938 34.828125 17.367188 35.355469 16.847656 C 35.886719 16.332031 36.503906 16.070312 37.214844 16.070312 C 37.925781 16.070312 38.410156 16.320312 38.65625 16.820312 C 38.90625 17.320312 38.914062 18.035156 38.667969 18.964844 Z M 39.945312 14.0625 L 39.582031 15.460938 C 39.421875 14.960938 39.113281 14.558594 38.660156 14.257812 C 38.207031 13.964844 37.640625 13.8125 36.96875 13.8125 C 36.144531 13.8125 35.355469 14.03125 34.597656 14.464844 C 33.835938 14.898438 33.171875 15.511719 32.605469 16.300781 C 32.035156 17.09375 31.621094 17.988281 31.355469 18.996094 C 31.09375 20.011719 31.039062 20.898438 31.195312 21.664062 C 31.359375 22.441406 31.703125 23.03125 32.234375 23.441406 C 32.769531 23.859375 33.449219 24.066406 34.285156 24.066406 C 34.957031 24.070312 35.597656 23.925781 36.207031 23.636719 C 36.808594 23.359375 37.324219 22.964844 37.757812 22.457031 L 37.375 23.914062 L 40.207031 23.914062 L 42.792969 14.070312 L 39.957031 14.070312 Z M 52.972656 14.0625 L 44.734375 14.0625 L 44.160156 16.257812 L 48.953125 16.257812 L 42.617188 21.84375 L 42.074219 23.90625 L 50.578125 23.90625 L 51.152344 21.710938 L 46.019531 21.710938 L 52.453125 16.039062 M 60.222656 18.9375 C 59.96875 19.90625 59.589844 20.632812 59.089844 21.109375 C 58.589844 21.585938 57.988281 21.828125 57.277344 21.828125 C 55.792969 21.828125 55.304688 20.863281 55.8125 18.9375 C 56.0625 17.980469 56.441406 17.257812 56.949219 16.773438 C 57.457031 16.285156 58.070312 16.042969 58.796875 16.042969 C 59.503906 16.042969 59.984375 16.285156 60.230469 16.769531 C 60.476562 17.253906 60.476562 17.976562 60.222656 18.9375 M 61.882812 14.433594 C 61.230469 14.019531 60.398438 13.8125 59.382812 13.8125 C 58.355469 13.8125 57.402344 14.019531 56.527344 14.429688 C 55.644531 14.847656 54.898438 15.441406 54.289062 16.214844 C 53.671875 16.992188 53.230469 17.898438 52.957031 18.933594 C 52.6875 19.964844 52.65625 20.871094 52.863281 21.648438 C 53.070312 22.421875 53.507812 23.019531 54.164062 23.429688 C 54.824219 23.84375 55.664062 24.050781 56.695312 24.050781 C 57.710938 24.050781 58.65625 23.84375 59.523438 23.429688 C 60.390625 23.011719 61.132812 22.421875 61.75 21.640625 C 62.367188 20.867188 62.808594 19.960938 63.082031 18.925781 C 63.355469 17.886719 63.386719 16.984375 63.179688 16.207031 C 62.972656 15.433594 62.542969 14.835938 61.890625 14.421875 M 71.996094 16.695312 L 72.71875 14.015625 C 72.476562 13.886719 72.152344 13.820312 71.75 13.820312 C 71.097656 13.820312 70.476562 13.984375 69.875 14.316406 C 69.359375 14.597656 68.921875 14.996094 68.550781 15.492188 L 68.925781 14.050781 L 68.105469 14.054688 L 66.085938 14.054688 L 63.480469 23.894531 L 66.355469 23.894531 L 67.703125 18.75 C 67.902344 18.003906 68.253906 17.414062 68.765625 16.996094 C 69.273438 16.578125 69.90625 16.367188 70.671875 16.367188 C 71.140625 16.367188 71.578125 16.476562 71.992188 16.695312 M 79.988281 18.984375 C 79.742188 19.902344 79.371094 20.605469 78.863281 21.089844 C 78.355469 21.574219 77.742188 21.820312 77.035156 21.820312 C 76.324219 21.820312 75.839844 21.574219 75.582031 21.082031 C 75.320312 20.589844 75.316406 19.878906 75.5625 18.949219 C 75.804688 18.015625 76.183594 17.300781 76.703125 16.804688 C 77.21875 16.304688 77.832031 16.054688 78.539062 16.054688 C 79.238281 16.054688 79.707031 16.308594 79.960938 16.828125 C 80.210938 17.347656 80.214844 18.066406 79.976562 18.984375 M 81.984375 14.449219 C 81.453125 14.015625 80.773438 13.796875 79.949219 13.796875 C 79.226562 13.796875 78.539062 13.964844 77.882812 14.304688 C 77.230469 14.640625 76.703125 15.097656 76.296875 15.679688 L 76.304688 15.613281 L 76.789062 14.050781 L 73.984375 14.050781 L 73.269531 16.773438 L 73.246094 16.867188 L 70.296875 28.085938 L 73.175781 28.085938 L 74.660156 22.4375 C 74.808594 22.941406 75.105469 23.335938 75.566406 23.621094 C 76.023438 23.90625 76.589844 24.046875 77.261719 24.046875 C 78.097656 24.046875 78.894531 23.839844 79.652344 23.425781 C 80.410156 23.015625 81.0625 22.417969 81.621094 21.652344 C 82.179688 20.882812 82.589844 19.992188 82.855469 18.984375 C 83.121094 17.972656 83.175781 17.074219 83.023438 16.285156 C 82.867188 15.496094 82.523438 14.882812 81.992188 14.453125 M 91.523438 18.945312 C 91.277344 19.875 90.902344 20.585938 90.394531 21.078125 C 89.886719 21.570312 89.277344 21.816406 88.566406 21.816406 C 87.839844 21.816406 87.347656 21.578125 87.09375 21.09375 C 86.832031 20.609375 86.824219 19.90625 87.066406 18.988281 C 87.304688 18.066406 87.6875 17.347656 88.21875 16.832031 C 88.746094 16.3125 89.367188 16.054688 90.078125 16.054688 C 90.789062 16.054688 91.265625 16.304688 91.519531 16.800781 C 91.769531 17.300781 91.769531 18.011719 91.527344 18.945312 Z M 92.808594 14.050781 L 92.441406 15.449219 C 92.28125 14.945312 91.976562 14.542969 91.523438 14.246094 C 91.066406 13.949219 90.503906 13.800781 89.832031 13.800781 C 89.007812 13.800781 88.210938 14.019531 87.453125 14.453125 C 86.691406 14.886719 86.027344 15.496094 85.460938 16.285156 C 84.890625 17.074219 84.476562 17.972656 84.210938 18.980469 C 83.945312 19.992188 83.894531 20.878906 84.050781 21.652344 C 84.210938 22.417969 84.554688 23.011719 85.089844 23.429688 C 85.621094 23.839844 86.304688 24.046875 87.140625 24.046875 C 87.8125 24.046875 88.453125 23.90625 89.0625 23.621094 C 89.660156 23.339844 90.175781 22.945312 90.609375 22.4375 L 90.226562 23.894531 L 93.058594 23.894531 L 95.644531 14.054688 L 92.8125 14.054688 Z M 107.535156 14.054688 L 107.539062 14.050781 L 105.796875 14.050781 C 105.742188 14.050781 105.691406 14.054688 105.640625 14.054688 L 104.738281 14.054688 L 104.273438 14.714844 L 104.160156 14.867188 L 104.109375 14.945312 L 100.441406 20.164062 L 99.679688 14.054688 L 96.675781 14.054688 L 98.199219 23.339844 L 94.835938 28.089844 L 97.832031 28.089844 L 98.644531 26.914062 C 98.667969 26.878906 98.6875 26.847656 98.714844 26.8125 L 99.667969 25.4375 L 99.695312 25.398438 L 103.945312 19.242188 L 107.53125 14.0625 L 107.539062 14.0625 L 107.535156 14.0625 Z M 107.535156 14.054688 " fill-opacity="1" fill-rule="nonzero"/></g></svg>