<svg xmlns="http://www.w3.org/2000/svg" xmlns:xlink="http://www.w3.org/1999/xlink" width="150" zoomAndPan="magnify" viewBox="0 0 112.5 31.5" height="42" preserveAspectRatio="xMidYMid meet" version="1.0"><defs><clipPath id="a8598b0b26"><path d="M 0.632812 0 L 111.375 0 L 111.375 31.007812 L 0.632812 31.007812 Z M 0.632812 0 " clip-rule="nonzero"/></clipPath><clipPath id="42ebe0d598"><path d="M 2.109375 0 L 109.898438 0 C 110.714844 0 111.375 0.660156 111.375 1.476562 L 111.375 29.53125 C 111.375 30.347656 110.714844 31.007812 109.898438 31.007812 L 2.109375 31.007812 C 1.292969 31.007812 0.632812 30.347656 0.632812 29.53125 L 0.632812 1.476562 C 0.632812 0.660156 1.292969 0 2.109375 0 Z M 2.109375 0 " clip-rule="nonzero"/></clipPath><clipPath id="7d136427f1"><path d="M 8 4.261719 L 19 4.261719 L 19 23 L 8 23 Z M 8 4.261719 " clip-rule="nonzero"/></clipPath><clipPath id="cc9d0812f7"><path d="M 2.839844 8 L 109.152344 8 L 109.152344 26.410156 L 2.839844 26.410156 Z M 2.839844 8 " clip-rule="nonzero"/></clipPath></defs><g clip-path="url(#a8598b0b26)"><g clip-path="url(#42ebe0d598)"><path fill="#0cc0df" d="M 0.632812 0 L 111.339844 0 L 111.339844 31.007812 L 0.632812 31.007812 Z M 0.632812 0 " fill-opacity="1" fill-rule="nonzero"/></g></g><g clip-path="url(#7d136427f1)"><path fill="#3395ff" d="M 9.726562 10.097656 L 8.84375 13.300781 L 13.898438 10.078125 L 10.589844 22.230469 L 13.949219 22.234375 L 18.832031 4.285156 " fill-opacity="1" fill-rule="nonzero"/></g><g clip-path="url(#cc9d0812f7)"><path fill="#072654" d="M 4.285156 17.125 L 2.894531 22.234375 L 9.777344 22.234375 L 12.589844 11.84375 L 4.285156 17.125 M 28.1875 12.628906 C 28.019531 13.242188 27.695312 13.695312 27.210938 13.984375 C 26.726562 14.273438 26.050781 14.417969 25.179688 14.417969 L 22.402344 14.417969 L 23.378906 10.839844 L 26.152344 10.839844 C 27.023438 10.839844 27.625 10.980469 27.949219 11.273438 C 28.273438 11.566406 28.351562 12.015625 28.1875 12.632812 M 31.058594 12.554688 C 31.414062 11.265625 31.265625 10.269531 30.621094 9.574219 C 29.976562 8.882812 28.84375 8.535156 27.230469 8.535156 L 21.035156 8.535156 L 17.308594 22.238281 L 20.316406 22.238281 L 21.820312 16.714844 L 23.792969 16.714844 C 24.238281 16.714844 24.585938 16.789062 24.839844 16.925781 C 25.09375 17.070312 25.246094 17.316406 25.289062 17.675781 L 25.828125 22.238281 L 29.050781 22.238281 L 28.527344 17.984375 C 28.421875 17.035156 27.980469 16.476562 27.207031 16.3125 C 28.195312 16.03125 29.023438 15.5625 29.6875 14.910156 C 30.363281 14.25 30.820312 13.46875 31.058594 12.5625 M 38.371094 17.335938 C 38.121094 18.261719 37.734375 18.964844 37.210938 19.457031 C 36.6875 19.945312 36.0625 20.191406 35.332031 20.191406 C 34.589844 20.191406 34.085938 19.953125 33.816406 19.472656 C 33.550781 18.992188 33.542969 18.296875 33.789062 17.382812 C 34.039062 16.472656 34.433594 15.761719 34.976562 15.246094 C 35.519531 14.734375 36.15625 14.476562 36.886719 14.476562 C 37.613281 14.476562 38.113281 14.722656 38.367188 15.21875 C 38.625 15.714844 38.628906 16.421875 38.378906 17.34375 Z M 39.691406 12.484375 L 39.316406 13.871094 C 39.152344 13.375 38.835938 12.976562 38.371094 12.679688 C 37.902344 12.386719 37.324219 12.234375 36.632812 12.234375 C 35.789062 12.234375 34.972656 12.453125 34.195312 12.882812 C 33.414062 13.3125 32.730469 13.921875 32.148438 14.707031 C 31.566406 15.488281 31.140625 16.378906 30.863281 17.378906 C 30.597656 18.382812 30.539062 19.261719 30.703125 20.023438 C 30.871094 20.792969 31.222656 21.378906 31.769531 21.785156 C 32.316406 22.199219 33.019531 22.40625 33.875 22.40625 C 34.566406 22.40625 35.222656 22.265625 35.847656 21.980469 C 36.46875 21.703125 36.996094 21.3125 37.441406 20.808594 L 37.046875 22.253906 L 39.957031 22.253906 L 42.613281 12.488281 L 39.699219 12.488281 Z M 53.070312 12.484375 L 44.609375 12.484375 L 44.019531 14.660156 L 48.941406 14.660156 L 42.433594 20.199219 L 41.875 22.246094 L 50.609375 22.246094 L 51.203125 20.066406 L 45.925781 20.066406 L 52.535156 14.445312 M 60.519531 17.316406 C 60.257812 18.277344 59.867188 19 59.355469 19.472656 C 58.84375 19.945312 58.222656 20.183594 57.492188 20.183594 C 55.964844 20.183594 55.464844 19.230469 55.984375 17.316406 C 56.242188 16.367188 56.632812 15.652344 57.15625 15.171875 C 57.675781 14.691406 58.308594 14.449219 59.050781 14.449219 C 59.78125 14.449219 60.273438 14.6875 60.527344 15.167969 C 60.777344 15.648438 60.777344 16.367188 60.519531 17.316406 M 62.222656 12.851562 C 61.550781 12.441406 60.695312 12.234375 59.652344 12.234375 C 58.597656 12.234375 57.621094 12.441406 56.722656 12.847656 C 55.8125 13.261719 55.046875 13.851562 54.421875 14.621094 C 53.789062 15.386719 53.332031 16.289062 53.054688 17.316406 C 52.78125 18.339844 52.746094 19.238281 52.957031 20.007812 C 53.171875 20.773438 53.621094 21.363281 54.292969 21.773438 C 54.972656 22.1875 55.835938 22.390625 56.894531 22.390625 C 57.9375 22.390625 58.90625 22.183594 59.796875 21.773438 C 60.691406 21.359375 61.453125 20.773438 62.085938 20 C 62.71875 19.230469 63.171875 18.332031 63.453125 17.304688 C 63.734375 16.277344 63.765625 15.378906 63.554688 14.609375 C 63.339844 13.839844 62.898438 13.25 62.230469 12.839844 M 72.609375 15.09375 L 73.355469 12.4375 C 73.101562 12.308594 72.769531 12.242188 72.355469 12.242188 C 71.6875 12.242188 71.050781 12.40625 70.433594 12.734375 C 69.902344 13.015625 69.453125 13.410156 69.070312 13.902344 L 69.457031 12.472656 L 68.613281 12.476562 L 66.539062 12.476562 L 63.863281 22.234375 L 66.816406 22.234375 L 68.203125 17.132812 C 68.402344 16.390625 68.765625 15.808594 69.292969 15.394531 C 69.8125 14.976562 70.464844 14.769531 71.25 14.769531 C 71.730469 14.769531 72.179688 14.878906 72.605469 15.09375 M 80.816406 17.363281 C 80.566406 18.277344 80.183594 18.972656 79.664062 19.453125 C 79.140625 19.933594 78.515625 20.175781 77.785156 20.175781 C 77.054688 20.175781 76.558594 19.933594 76.292969 19.445312 C 76.023438 18.957031 76.019531 18.253906 76.269531 17.328125 C 76.523438 16.402344 76.910156 15.691406 77.441406 15.203125 C 77.976562 14.707031 78.601562 14.457031 79.332031 14.457031 C 80.050781 14.457031 80.53125 14.710938 80.789062 15.226562 C 81.046875 15.738281 81.054688 16.453125 80.804688 17.363281 M 82.867188 12.867188 C 82.320312 12.4375 81.625 12.222656 80.777344 12.222656 C 80.035156 12.222656 79.328125 12.386719 78.660156 12.722656 C 77.988281 13.054688 77.445312 13.511719 77.027344 14.089844 L 77.039062 14.023438 L 77.53125 12.46875 L 74.652344 12.46875 L 73.917969 15.171875 L 73.894531 15.265625 L 70.867188 26.390625 L 73.820312 26.390625 L 75.347656 20.789062 C 75.496094 21.289062 75.804688 21.679688 76.277344 21.960938 C 76.746094 22.246094 77.328125 22.382812 78.019531 22.382812 C 78.878906 22.382812 79.695312 22.179688 80.472656 21.769531 C 81.25 21.359375 81.925781 20.769531 82.496094 20.007812 C 83.066406 19.246094 83.492188 18.363281 83.761719 17.363281 C 84.039062 16.363281 84.09375 15.46875 83.9375 14.6875 C 83.777344 13.90625 83.421875 13.300781 82.878906 12.871094 M 92.667969 17.324219 C 92.417969 18.246094 92.03125 18.953125 91.507812 19.441406 C 90.988281 19.929688 90.359375 20.171875 89.628906 20.171875 C 88.882812 20.171875 88.378906 19.9375 88.117188 19.457031 C 87.847656 18.972656 87.839844 18.277344 88.089844 17.367188 C 88.335938 16.457031 88.730469 15.742188 89.273438 15.230469 C 89.816406 14.714844 90.453125 14.460938 91.183594 14.460938 C 91.910156 14.460938 92.40625 14.707031 92.664062 15.199219 C 92.921875 15.691406 92.921875 16.402344 92.671875 17.328125 Z M 93.984375 12.472656 L 93.609375 13.859375 C 93.445312 13.359375 93.132812 12.960938 92.667969 12.664062 C 92.195312 12.371094 91.617188 12.222656 90.929688 12.222656 C 90.082031 12.222656 89.265625 12.4375 88.484375 12.871094 C 87.707031 13.300781 87.023438 13.90625 86.4375 14.6875 C 85.855469 15.46875 85.429688 16.359375 85.15625 17.359375 C 84.882812 18.363281 84.828125 19.242188 84.992188 20.007812 C 85.15625 20.773438 85.511719 21.359375 86.058594 21.773438 C 86.601562 22.179688 87.308594 22.386719 88.164062 22.386719 C 88.855469 22.386719 89.511719 22.246094 90.136719 21.960938 C 90.753906 21.6875 91.285156 21.292969 91.726562 20.789062 L 91.335938 22.234375 L 94.242188 22.234375 L 96.898438 12.476562 L 93.992188 12.476562 Z M 109.117188 12.476562 L 109.117188 12.472656 L 107.328125 12.472656 C 107.269531 12.472656 107.222656 12.476562 107.167969 12.476562 L 106.242188 12.476562 L 105.765625 13.128906 L 105.648438 13.285156 L 105.597656 13.359375 L 101.828125 18.535156 L 101.046875 12.476562 L 97.960938 12.476562 L 99.523438 21.683594 L 96.070312 26.394531 L 99.148438 26.394531 L 99.984375 25.226562 C 100.007812 25.191406 100.027344 25.164062 100.054688 25.128906 L 101.03125 23.765625 L 101.058594 23.726562 L 105.429688 17.621094 L 109.113281 12.484375 L 109.117188 12.480469 Z M 109.117188 12.476562 " fill-opacity="1" fill-rule="nonzero"/></g></svg>