<svg xmlns="http://www.w3.org/2000/svg" xmlns:xlink="http://www.w3.org/1999/xlink" width="50" zoomAndPan="magnify" viewBox="0 0 37.5 37.499999" height="50" preserveAspectRatio="xMidYMid meet" version="1.0"><defs><clipPath id="326c9930c1"><path d="M 1.777344 1.777344 L 35.007812 1.777344 L 35.007812 35.007812 L 1.777344 35.007812 Z M 1.777344 1.777344 " clip-rule="nonzero"/></clipPath><clipPath id="20315d2591"><path d="M 18.390625 1.777344 C 9.214844 1.777344 1.777344 9.214844 1.777344 18.390625 C 1.777344 27.570312 9.214844 35.007812 18.390625 35.007812 C 27.570312 35.007812 35.007812 27.570312 35.007812 18.390625 C 35.007812 9.214844 27.570312 1.777344 18.390625 1.777344 Z M 18.390625 1.777344 " clip-rule="nonzero"/></clipPath><clipPath id="5d7f1bf720"><path d="M 7 7 L 29.828125 7 L 29.828125 29.714844 L 7 29.714844 Z M 7 7 " clip-rule="nonzero"/></clipPath></defs><g clip-path="url(#326c9930c1)"><g clip-path="url(#20315d2591)"><path fill="#000000" d="M 1.777344 1.777344 L 35.007812 1.777344 L 35.007812 35.007812 L 1.777344 35.007812 Z M 1.777344 1.777344 " fill-opacity="1" fill-rule="nonzero"/></g></g><g clip-path="url(#5d7f1bf720)"><path fill="#ffffff" d="M 20.527344 16.757812 L 28.457031 7.742188 L 26.578125 7.742188 L 19.691406 15.570312 L 14.195312 7.742188 L 7.851562 7.742188 L 16.167969 19.582031 L 7.851562 29.039062 L 9.730469 29.039062 L 17 20.765625 L 22.804688 29.039062 L 29.148438 29.039062 Z M 17.953125 19.683594 L 17.109375 18.503906 L 10.40625 9.125 L 13.292969 9.125 L 18.703125 16.699219 L 19.546875 17.878906 L 26.578125 27.71875 L 23.691406 27.71875 Z M 17.953125 19.683594 " fill-opacity="1" fill-rule="nonzero"/></g></svg>